<?xml version="1.0" encoding="utf-8"?>
<!-- Generator: Adobe Illustrator 18.0.0, SVG Export Plug-In . SVG Version: 6.00 Build 0)  -->
<!DOCTYPE svg PUBLIC "-//W3C//DTD SVG 1.1//EN" "http://www.w3.org/Graphics/SVG/1.1/DTD/svg11.dtd">
<svg version="1.1" xmlns="http://www.w3.org/2000/svg" xmlns:xlink="http://www.w3.org/1999/xlink" x="0px" y="0px"
	 viewBox="0 0 1000 1000" enable-background="new 0 0 1000 1000" xml:space="preserve">
<g id="Layer_1">
	<path fill="#353839" stroke="#1A2423" stroke-width="10" stroke-miterlimit="10" d="M778.7,615.5c0,93.5-108.3,169.3-242.2,169.3
		h-44c-134.7,0-243.8-75.7-243.8-169.3l0-14.5v-2l0-6.5l1.4-312c0.1-34.2,35.3-52.4,57.8-30l145.6,145.3c9.5,9.5,15,23.3,15,37.7
		v116.1c0,13.5,4.8,26.5,13.3,35.9l41.3,45.9l37.8-44.9c7.9-9.4,12.4-22.4,12.4-35.9V434.5c0-14.5,5.1-28.2,14-37.7l136.1-145.3
		c21-22.5,53.8-4.2,54,30l1.3,309.5l0,1.5l0,9.5L778.7,615.5z"/>
	<path fill="none" stroke="#000000" stroke-width="10" stroke-miterlimit="10" d="M431.6,783.8"/>
	<path fill="#1A2423" d="M489.6,646.7L557,646c15.8-0.1,25.5,17.3,17.1,30.7l-33.2,52.7c-7.8,12.3-25.7,12.5-33.6,0.3l-34.1-52
		C464.4,664.4,473.8,646.8,489.6,646.7z"/>
</g>
<g id="Layer_2">
</g>
</svg>
