<svg xmlns="http://www.w3.org/2000/svg" height="40" viewBox="0 96 960 960" width="40"><path d="M145.323 631.384q-22.733 0-39.028-16.356-16.294-16.356-16.294-39.089 0-22.734 16.356-39.028 16.356-16.295 39.089-16.295 22.733 0 39.028 16.356 16.294 16.356 16.294 39.089 0 22.734-16.356 39.028-16.355 16.295-39.089 16.295Zm69.446 244.051-35.794-35.794 159.743-159.743 35.794 36.051-159.743 159.486Zm124.872-405.59L180.565 310.769l35.794-35.794 159.076 159.076-35.794 35.794Zm140.298 496.154q-22.734 0-39.028-16.356-16.295-16.356-16.295-39.089 0-22.733 16.356-39.028 16.356-16.294 39.089-16.294 22.734 0 39.028 16.356 16.295 16.355 16.295 39.089 0 22.733-16.356 39.028-16.356 16.294-39.089 16.294Zm0-669.231q-22.734 0-39.028-16.356-16.295-16.355-16.295-39.089 0-22.733 16.356-39.028 16.356-16.294 39.089-16.294 22.734 0 39.028 16.356 16.295 16.356 16.295 39.089 0 22.733-16.356 39.028-16.356 16.294-39.089 16.294Zm140.42 173.487-35.794-36.204 160.256-159.076 35.793 35.794-160.255 159.486Zm124.462 404.77L585.488 715.949l35.794-36.051 159.332 159.333-35.793 35.794Zm69.733-243.641q-22.733 0-39.028-16.356-16.294-16.356-16.294-39.089 0-22.734 16.356-39.028 16.355-16.295 39.089-16.295 22.733 0 39.028 16.356 16.294 16.356 16.294 39.089 0 22.734-16.356 39.028-16.356 16.295-39.089 16.295Z"/></svg>